<svg xmlns="http://www.w3.org/2000/svg" viewBox="0 0 120 24" width="120" height="24" role="img" aria-label="SuSeeOS" style="color:#3B2B27">
  <g fill="none" stroke="currentColor" stroke-width="1.8" stroke-linecap="round" opacity=".42">
    <path d="M1.4 11.4h2.4"></path><path d="M2.5 14.6h1.6"></path>
  </g>
  <path d="M1.9 3.3h1.7l1.1 3.5" fill="none" stroke="currentColor" stroke-width="2.1" stroke-linecap="round" stroke-linejoin="round"></path>
  <path fill-rule="evenodd" clip-rule="evenodd" fill="currentColor" d="M8.4 6.2h9.2a3.6 3.6 0 0 1 3.6 3.6v3a3.6 3.6 0 0 1-3.6 3.6H8.4a3.6 3.6 0 0 1-3.6-3.6v-3a3.6 3.6 0 0 1 3.6-3.6Zm5 1.6a3.5 3.5 0 1 0 0 7 3.5 3.5 0 0 0 0-7Z"></path>
  <circle cx="13.4" cy="11.3" r="2.55" fill="currentColor"></circle>
  <circle cx="9.3" cy="19.9" r="1.8" fill="currentColor"></circle>
  <circle cx="17.1" cy="19.9" r="1.8" fill="currentColor"></circle>
  <text x="27" y="18.4" font-family="'Public Sans', Helvetica, Arial, sans-serif" font-weight="800" font-size="18" letter-spacing="-0.7" fill="#3B2B27">SuSeeOS</text>
</svg>